Patient4_TMGait_0pt7_01_left_13_EMG.mot
version=1
nRows=34
nColumns=33
inDegrees=no
endheader
time	1LAddLong	2LGlutMax	3LGlutMed	4LIliopsoas	5LSemiMemb	6LBicFemLong	7LRecFem	8LVastMed	9LVastLat	10LGasMed	11LTibAnt	12lTibPost	13LPeroneusLong	14LSol	15LExtDigLong	16LFlexDigLong	17RAddLong	18RGlutMax	19RGlutMed	20RIliopsoas	21RSemiMemb	22RBicFemLong	23RRecFem	24RVastMed	25RVastLat	26RGasMed	27RTibAnt	28RTibPost	29RPeroneusLong	30RSol	31RExtDigLong	32RFlexDigLong
15.32	-0.020447	0.73318	0.019073	0.009308	-0.10346	0.10712	-0.084534	-0.035858	-0.51956	0.10941	-0.019684	-0.025787	0.012665	-0.084686	0.051727	0.04776	-0.043488	-0.1329	-0.18799	-0.13275	-0.10407	-0.1033	0.77789	0.15182	-0.061951	0.009003	0.1152	-0.008698	-0.32211	-0.060272	0.002289	0.000916
15.321	-0.014343	0.73196	0.030212	0.014191	-0.15915	0.13351	-0.19333	-0.018616	-0.64728	0.13825	-0.003357	-0.008087	0.30594	-0.13626	-0.07019	0.032501	-0.046844	-0.10956	-0.11688	-0.088043	-0.10986	-0.28793	0.82977	0.03006	-0.11368	0.011749	0.097351	-0.002594	-0.2153	-0.042572	-0.001831	-0.008545
15.322	-0.009155	0.70618	0.028992	-0.015106	-0.1416	-0.010529	-0.31555	-0.003052	-0.54733	0.18875	0.078735	0.011292	0.10269	-0.21362	-0.087738	0.032806	-0.069275	-0.18051	-0.13534	0.04715	-0.075989	-0.31952	0.85663	-0.011139	-0.11902	0.013123	-0.027008	-0.009918	-0.09903	-0.24017	-0.004883	-0.008698
15.323	-0.006256	0.7222	0.014954	-0.010376	-0.20828	-0.089417	-0.39261	-0.006409	-0.42175	0.10803	0.017395	0.031128	0.091095	-0.44846	0.027313	0.022278	-0.047913	-0.20798	0.013885	0.088959	-0.048676	-0.28229	0.83283	-0.049896	-0.099335	0.003052	-0.12436	-0.009308	0.2034	-0.26184	-0.002136	-0.009766
15.324	-0.000305	0.77423	-0.023956	0.000763	-0.21851	-0.020599	-0.48248	-0.003052	-0.37354	-0.10101	-0.007019	0.04425	-0.19241	-0.57785	0.002594	0.027313	-0.027924	-0.26871	0.10696	0.14969	-0.007782	-0.22095	0.80658	-0.026398	-0.097961	0.015259	-0.095367	-0.010071	0.44266	-0.24689	0	-0.000458
15.325	0.032501	0.78339	-0.02533	0.019684	-0.11078	0.054321	-0.5574	-0.000763	-0.33417	-0.16281	0.045471	0.056305	-0.15595	-0.36896	-0.030518	0.033722	-0.033417	-0.32562	0.046539	0.18448	-0.007782	-0.1442	0.77499	0.007629	-0.094299	0.010376	-0.1004	-0.004425	0.29587	-0.21408	-0.00061	-0.009918
15.326	0.034943	0.84412	0.036163	0.026093	-0.03891	0.01358	-0.63202	0.006714	-0.27939	-0.12161	0.066223	0.076904	0.02594	-0.052338	-0.00473	0.028229	-0.00946	-0.46997	-0.000458	0.14984	0.02655	-0.051575	0.76019	0.036316	-0.097656	0.003357	-0.033569	-0.010681	0.008087	-0.10422	-0.001373	-0.014648
15.327	0.013885	0.87921	0.049591	0.010071	-0.032654	0.004883	-0.60349	0.011597	-0.26093	-0.14038	0.058746	0.10788	-0.28717	0.15701	0.051575	0.025787	0.078583	-0.51727	-0.099335	0.085754	0.044556	-0.007172	0.61493	0.059814	-0.084381	0.005798	-0.026855	-0.00824	-0.10178	-0.080719	-0.002136	-0.025635
15.328	-0.010529	0.91202	0.019836	-0.003204	-0.13321	-0.057678	-0.54138	0.019989	-0.2594	-0.14999	0.002747	0.1181	-0.56519	0.08728	0.029755	0.018005	0.11185	-0.63431	-0.31891	-0.037384	0.008087	-0.021362	0.59097	0.00885	-0.096893	0.007019	-0.039673	-0.008545	-0.40649	-0.18127	-0.000458	-0.005493
15.329	-0.014496	0.92407	0.005646	0.008545	-0.18738	0.007324	-0.52353	0.016785	-0.23865	-0.06958	0.039368	0.12772	0.24597	0.03479	0.054474	0.030365	0.12436	-0.67719	-0.24918	-0.17716	-0.012817	-0.028229	0.55939	-0.003204	-0.10742	0.00946	0.011902	-0.008698	-1.1871	-0.19562	-0.001068	-0.016327
15.33	0.005188	0.9346	-0.02594	0.012512	-0.1886	0.06958	-0.4805	0.014801	-0.20554	-0.070496	0.005035	0.14175	0.76492	0.11063	0.075073	0.030823	0.076447	-0.75592	-0.2507	-0.22705	-0.025024	0.024719	0.49911	-0.12466	-0.092468	0.006714	-0.001373	-0.008087	-0.3569	-0.16174	0.006561	-0.010376
15.331	0.054779	1.0219	-0.089569	0.003357	-0.15427	0.028687	-0.50888	-0.006866	-0.12634	-0.04776	-0.01297	0.16098	1.3373	0.064087	0.00885	0.029602	0.01297	-0.82809	-0.33173	-0.16663	-0.056305	0.089417	0.42328	-0.159	-0.075531	0.006104	-0.046234	-0.016785	0.68802	-0.024872	-0.003052	-0.015869
15.332	0.081635	1.0687	-0.063782	0.001068	0.063629	0.22385	-0.5159	-0.010376	-0.050659	-0.11612	0.00061	0.15945	-0.58456	0.028992	0.06134	0.017548	0.019226	-0.87204	-0.18433	-0.075378	-0.04837	0.058899	0.46555	-0.29114	-0.087433	0.001831	-0.062103	-0.013733	0.3009	-0.029297	-0.000458	-0.002289
15.333	0.062103	1.1186	-0.12619	0.015869	0.05188	0.14786	-0.45212	-0.016937	-0.017395	-0.071716	0.041504	0.17242	-0.83969	-0.093384	-0.037537	0.01709	-0.009613	-0.92483	-0.18753	-0.14099	-0.06897	0.049438	0.49942	-0.28641	-0.082245	-0.024414	-0.016785	-0.012665	0.074615	0.051575	-0.005798	-0.001678
15.334	0.055237	1.2283	-0.15854	0.029602	0.02243	0.7547	-0.40848	-0.006561	0.00351	-0.010376	0.056	0.17166	-0.29037	-0.36484	-0.23453	0.019531	-0.027771	-0.89829	-0.2475	-0.18433	-0.082092	0.048523	0.43228	-0.33798	-0.069733	-0.019379	0	-0.002594	0.081024	0.2919	-0.001221	-0.007629
15.335	0.03952	1.254	-0.088043	0.002594	-0.023499	1.2605	-0.35385	-0.004272	0.029907	0.019073	-0.024567	0.1532	-0.027618	-0.1886	0.10391	0.025024	-0.030975	-0.9639	-0.40771	-0.090179	-0.077362	0.075989	0.45013	-0.3598	-0.060883	-0.015717	0.017395	0.012054	-0.24002	0.10239	-0.004883	-0.005341
15.336	0.020142	1.553	0.09491	-0.003357	-0.11215	1.2625	-0.31693	0.012665	0.067749	0.008698	0.058899	0.15686	-0.18234	0.061493	0.57495	0.039825	-0.060883	-0.94544	-0.32486	0.10437	-0.074463	0.09964	0.6044	-0.27664	-0.068817	-0.007935	-0.040283	0.001678	-0.50293	0.08194	-0.005188	0.00412
15.337	0.014801	1.6029	0.050201	0.011597	-0.060883	0.78445	-0.35294	0.025024	0.073547	-0.058594	0.17975	0.14893	0.24262	0.014954	0.45364	0.039215	-0.056152	-0.94009	-0.29404	0.34775	-0.053864	0.13779	0.83588	-0.19745	-0.05661	0.007935	-0.085449	-0.005951	-0.33341	-0.16098	-0.001831	-0.000305
15.338	0.017853	1.4998	-0.019684	0.010223	0.029907	-0.011444	-0.40359	0.003357	0.097046	-0.059814	0.25177	0.13275	-0.15564	-0.10422	-0.32654	0.008698	0.012207	-0.96619	-0.46112	0.53009	-0.033722	0.16403	0.9169	-0.12512	-0.015259	0.023193	-0.014343	-0.026398	0.23651	-0.16083	-0.004578	0.002899
15.339	0.018158	1.4362	-0.081482	0.024414	-0.000763	-0.52094	-0.41611	0.018311	0.13672	-0.061646	0.13718	0.12009	-0.41489	0.088959	-0.17929	0.04425	0.053253	-0.97824	-0.49042	0.50064	-0.032043	0.12878	0.85403	-0.13473	-0.027924	0.028534	0.044861	-0.018921	0.49866	0.072784	-0.003204	-0.005493
15.34	0.016327	1.2514	-0.054932	0.016174	-0.032196	-0.83466	-0.44571	0.019226	0.17242	-0.075989	-0.17212	0.095673	0.74417	0.27756	-0.19714	0.037384	0.083313	-0.99579	-0.32715	0.30914	-0.019684	0.06073	0.67413	-0.17288	-0.019836	0.026398	0.029449	-0.011902	-0.44159	0.18097	-0.000458	-0.002747
15.341	-0.00946	1.0789	-0.097504	0.014648	-0.036469	-0.83847	-0.44083	0.030212	0.11261	-0.066528	-0.31616	0.076141	0.93353	0.4599	-0.35492	0.040894	0.088501	-0.97183	-0.33768	0.20371	-0.030975	0.073547	0.70831	-0.16251	-0.002136	0.033722	0.001068	0.009918	-0.97046	0.12116	-0.005493	-0.005951
15.342	-0.016174	0.87204	-0.054779	0.02533	-0.041656	-0.90302	-0.39749	0.013428	0.18341	0.002136	-0.2742	0.038757	-0.53329	0.28229	-0.42053	0.017548	0.055237	-0.98206	-0.51163	0.18951	-0.035095	0.092621	0.6105	-0.19058	0	0.025024	-0.044556	0.03006	-0.094452	-0.07309	-0.002441	-0.013885
15.343	-0.017395	0.75272	0.11078	0.019226	-0.046997	-0.85632	-0.31952	-0.003967	0.35187	-0.004883	-0.15106	0.00824	-0.1831	0.17761	-0.33646	0.026855	0.032959	-0.95596	-0.63507	0.13702	-0.024109	0.050812	0.45593	-0.19714	0.012665	0.010071	-0.06012	0.01236	0.021667	-0.081635	-0.00351	-0.019684
15.344	-0.021515	0.5928	0.14008	0.014191	-0.059509	-0.52261	-0.26718	-0.002441	0.33936	0.025635	-0.013885	-0.012054	0.2449	-0.10178	-0.34347	0.006561	0.020142	-0.94345	-0.54504	-0.02182	-0.055847	0.063477	0.1683	-0.27573	-0.013275	-0.001984	-0.084229	-0.010681	0.097961	0.007324	0.000153	-0.013885
15.345	-0.007019	0.4071	0.13565	0.025635	-0.045319	-0.30746	-0.34149	-0.005493	0.47134	0.021973	0.12589	-0.034637	0.094604	-0.14374	0.42862	0.016937	0.007477	-0.94681	-0.61783	-0.18921	-0.075684	0.11673	0.14343	-0.34073	-0.002136	-0.019073	-0.087585	-0.010376	0.1265	0.28839	-0.000153	-0.01358
15.346	0.005951	0.21301	0.17471	0.014801	-0.039978	-0.17883	-0.39627	0.034027	0.60959	0.009308	0.28076	-0.051422	0.89966	-0.10666	0.65292	0.023651	-0.002747	-0.91522	-0.50354	-0.31311	-0.082245	0.24139	0.30304	-0.2948	-0.010223	-0.033722	-0.0914	-0.00824	0.20737	0.57648	-0.007172	-0.014954
15.347	-0.00473	0.057983	0.12405	0.008087	-0.099792	-0.24643	-0.39566	0.041504	0.77377	-0.068359	0.15823	-0.069733	0.121	0.076141	0.24963	0.014648	-0.027313	-1.0194	-0.47424	-0.23041	-0.068359	0.29144	0.43991	-0.20905	-0.02594	-0.024567	-0.083466	-0.006104	0.2063	0.34973	-0.003204	-0.010986
15.348	-0.007782	-0.084686	0.047913	0.022888	-0.22003	-0.2301	-0.39398	0.027618	0.84778	-0.025787	0.005188	-0.08606	-1.2737	0.13138	-0.15854	0.009308	-0.063019	-0.98404	-0.51712	-0.13077	-0.087891	0.30884	0.58365	-0.11383	-0.024261	-0.021515	0.022888	-0.000305	-0.10574	0.029755	-0.002594	-0.017242
15.349	0.003815	-0.24139	-0.065918	0.012512	-0.30212	-0.21988	-0.54306	-0.008698	0.71487	0.001068	0.079498	-0.096893	-0.79056	0.17593	-0.28839	-0.006561	-0.103	-0.94681	-0.39276	0.007477	-0.10437	0.28076	0.55939	-0.065765	-0.027924	-0.007019	0.049133	-0.00061	-0.13153	-0.17044	-0.002899	-0.013885
15.35	0.018616	-0.39185	-0.07782	0.016174	-0.24811	0.2179	-0.63904	-0.020142	0.4715	-0.007172	0.061493	-0.11002	-0.084076	0.27588	0.048981	0.000153	-0.11581	-0.9108	-0.34836	0.20569	-0.10162	0.21774	0.69305	-0.008392	-0.083008	0.001221	0.10391	-0.001221	0.27512	-0.44937	-0.001984	-0.023193
15.351	0.026093	-0.52582	-0.057983	0.00351	-0.10208	0.4985	-0.40115	-0.032501	0.17578	-0.035248	-0.15488	-0.11795	0.030518	0.38757	-0.11398	0.002899	-0.066376	-0.82336	-0.21118	0.27268	-0.081329	0.15549	0.91278	-0.035095	-0.057983	0.007782	0.2858	0.006866	0.28976	-0.63904	0.004883	-0.023193
15.352	0.038605	-0.64972	0.011292	0.006104	0.13138	0.76874	-0.2359	-0.02655	-0.26199	0.019226	-0.21347	-0.12451	-0.01709	0.16083	-0.049438	-0.011139	0.024109	-0.75409	-0.2301	0.28107	-0.080109	0.14389	0.84824	-0.054169	-0.036774	0.006714	0.38788	0.023041	0.30319	-0.50415	-0.002441	-0.025482
15.353	0.023499	-0.74631	0.01358	0.016785	0.10513	0.8786	-0.1915	-0.003204	-0.56183	0.058899	-0.095673	-0.1326	-0.069275	-0.27405	0.029449	-0.019379	-0.011902	-0.6369	-0.64102	0.25543	-0.059204	0.10315	0.54336	-0.18585	-0.032959	0.006714	0.44479	0.006866	0.096436	-0.20569	-0.003052	-0.029297
